# xmcd
#
# Track frame offsets:
#	150
#	12408
#	24094
#	35588
#	47833
#	59199
#	71903
#	86903
#	101144
#	112647
#	124106
#	134446
#	147329
#	158830
#	170935
#	183275
#	196616
#
# Disc length: 2815 seconds
#
# Revision: 0
# Processed by: cddbd v1.5.1PL0 Copyright (c) Steve Scherf et al.
# Submitted via: audiograbber 1.80
#
DISCID=f50afd11
DTITLE=Ray Charles - Ray Charles
DYEAR=1900
DGENRE=
TTITLE0=I've Had My Fun
TTITLE1=See See Rider
TTITLE2=What Have I Done
TTITLE3=Honey Honey
TTITLE4=She's On The Ball
TTITLE5=Why Did You Go?
TTITLE6=I'm Wondering And Wondering
TTITLE7=Walking And Talking
TTITLE8=Guitar Blues
TTITLE9=Back Home
TTITLE10=Ain't That Fine
TTITLE11=Don't Put All Your Dreams In One Basket
TTITLE12=You Be My Baby
TTITLE13=Mess Around
TTITLE14=It Shouldh've Been Me
TTITLE15=Don't You Know
TTITLE16=Funny But I Still Love You
EXTD=
EXTT0=
EXTT1=
EXTT2=
EXTT3=
EXTT4=
EXTT5=
EXTT6=
EXTT7=
EXTT8=
EXTT9=
EXTT10=
EXTT11=
EXTT12=
EXTT13=
EXTT14=
EXTT15=
EXTT16=
PLAYORDER=
